<?xml version="1.0" encoding="UTF-8"?>
<!DOCTYPE svg PUBLIC "-//W3C//DTD SVG 1.1//EN" "http://www.w3.org/Graphics/SVG/1.1/DTD/svg11.dtd">
<svg xmlns="http://www.w3.org/2000/svg" version="1.1" width="3840px" height="2160px" style="shape-rendering:geometricPrecision; text-rendering:geometricPrecision; image-rendering:optimizeQuality; fill-rule:evenodd; clip-rule:evenodd" xmlns:xlink="http://www.w3.org/1999/xlink">
<g><path style="opacity:0.996" fill="#0077f6" d="M 309.5,709.5 C 336.691,710.198 364.191,712.531 392,716.5C 392.5,752.498 392.667,788.498 392.5,824.5C 368.476,824.134 344.476,824.634 320.5,826C 291.504,828.219 275.671,843.719 273,872.5C 272.5,901.831 272.333,931.165 272.5,960.5C 311.833,960.5 351.167,960.5 390.5,960.5C 386.926,999.479 383.593,1038.48 380.5,1077.5C 344.5,1077.5 308.5,1077.5 272.5,1077.5C 272.5,1196.5 272.5,1315.5 272.5,1434.5C 224.833,1434.5 177.167,1434.5 129.5,1434.5C 129.5,1315.5 129.5,1196.5 129.5,1077.5C 96.8316,1077.67 64.165,1077.5 31.5,1077C 32.0574,1038.33 32.3907,999.502 32.5,960.5C 64.8333,960.5 97.1667,960.5 129.5,960.5C 129.333,925.832 129.5,891.165 130,856.5C 135.896,774.602 179.396,727.102 260.5,714C 276.914,711.675 293.247,710.175 309.5,709.5 Z"/></g>
<g><path style="opacity:0.994" fill="#0077f6" d="M 1962.5,711.5 C 1963.33,815.666 1963.83,919.999 1964,1024.5C 1977.07,996.761 1997.91,977.261 2026.5,966C 2080.97,945.236 2134.64,947.236 2187.5,972C 2223.84,992.006 2250,1021.17 2266,1059.5C 2283.23,1103.67 2291.4,1149.34 2290.5,1196.5C 2290.42,1232 2286.25,1267 2278,1301.5C 2251.85,1397.63 2189.51,1445.3 2091,1444.5C 2049.54,1444.02 2013.37,1430.19 1982.5,1403C 1972.08,1391.98 1963.24,1379.82 1956,1366.5C 1955.5,1389.16 1955.33,1411.83 1955.5,1434.5C 1910.5,1434.5 1865.5,1434.5 1820.5,1434.5C 1820.5,1197.83 1820.5,961.167 1820.5,724.5C 1868,720.394 1915.33,716.061 1962.5,711.5 Z M 2042.5,1064.5 C 2097.32,1059.5 2130.49,1083.84 2142,1137.5C 2146.3,1158.45 2148.13,1179.61 2147.5,1201C 2149.02,1229.39 2144.85,1256.89 2135,1283.5C 2122.27,1312.46 2100.11,1328.63 2068.5,1332C 2040.44,1335.41 2015.44,1328.41 1993.5,1311C 1975.8,1293.61 1965.97,1272.44 1964,1247.5C 1963.33,1217.17 1963.33,1186.83 1964,1156.5C 1965.28,1131.98 1973.61,1110.31 1989,1091.5C 2003.85,1076.49 2021.68,1067.49 2042.5,1064.5 Z"/></g>
<g><path style="opacity:0.991" fill="#0077f6" d="M 3507.5,712.5 C 3511.83,712.5 3516.17,712.5 3520.5,712.5C 3520.33,870.167 3520.5,1027.83 3521,1185.5C 3567.71,1110.58 3614.54,1035.75 3661.5,961C 3711.5,960.5 3761.5,960.333 3811.5,960.5C 3811.51,962.308 3811.01,963.975 3810,965.5C 3761.62,1042.42 3713.12,1119.25 3664.5,1196C 3715.62,1275.08 3766.62,1354.25 3817.5,1433.5C 3766.83,1434.83 3716.17,1434.83 3665.5,1433.5C 3617.14,1357.63 3568.97,1281.63 3521,1205.5C 3520.5,1281.83 3520.33,1358.17 3520.5,1434.5C 3472.5,1434.5 3424.5,1434.5 3376.5,1434.5C 3376.5,1197.83 3376.5,961.167 3376.5,724.5C 3420.33,720.765 3464,716.765 3507.5,712.5 Z"/></g>
<g><path style="opacity:0.996" fill="#0077f6" d="M 581.5,951.5 C 622.357,948.042 659.024,958.542 691.5,983C 707.381,996.548 719.881,1012.71 729,1031.5C 729.01,1007.69 729.677,984.019 731,960.5C 775.667,961.833 820.333,961.833 865,960.5C 865.5,1118.5 865.667,1276.5 865.5,1434.5C 820.167,1434.5 774.833,1434.5 729.5,1434.5C 729.667,1411.83 729.5,1389.16 729,1366.5C 706.692,1409.45 671.525,1434.62 623.5,1442C 589.118,1446.72 554.452,1443.38 519.5,1432C 473.631,1413.13 441.464,1380.63 423,1334.5C 413.531,1309.96 407.198,1284.62 404,1258.5C 397.568,1209.38 398.901,1160.04 408,1110.5C 415.96,1070.59 432.96,1035.25 459,1004.5C 492.927,971.019 533.761,953.353 581.5,951.5 Z M 619.5,1064.5 C 682.872,1061.7 717.038,1092.03 722,1155.5C 722.667,1186.17 722.667,1216.83 722,1247.5C 719.236,1275.2 707.403,1298.03 686.5,1316C 661.607,1332.61 634.607,1336.94 605.5,1329C 582.552,1321.79 566.052,1307.29 556,1285.5C 545.546,1258.33 541.046,1230.16 542.5,1201C 541.678,1175.74 544.512,1150.91 551,1126.5C 560.831,1091.21 583.665,1070.54 619.5,1064.5 Z"/></g>
<g><path style="opacity:0.994" fill="#0077f6" d="M 1151.5,951.5 C 1167.54,951.598 1184.87,952.432 1203.5,954C 1234.68,956.544 1264.34,964.544 1292.5,978C 1295.8,979.47 1298.46,981.637 1300.5,984.5C 1289.77,1018.53 1278.93,1052.53 1268,1086.5C 1227.37,1066.19 1185.21,1059.69 1141.5,1067C 1094.32,1078.82 1068.15,1108.98 1063,1157.5C 1062.07,1186.86 1062.4,1216.19 1064,1245.5C 1073.41,1295.58 1103.25,1324.75 1153.5,1333C 1193.31,1336.37 1231.15,1329.2 1267,1311.5C 1278.17,1345.02 1289.34,1378.52 1300.5,1412C 1286.48,1421.67 1271.15,1428.67 1254.5,1433C 1194.25,1447.79 1133.91,1448.12 1073.5,1434C 996.223,1414.39 948.056,1365.89 929,1288.5C 917.74,1232.02 916.74,1175.36 926,1118.5C 945.337,1028.16 1000.5,974.665 1091.5,958C 1111.52,954.592 1131.52,952.425 1151.5,951.5 Z"/></g>
<g><path style="opacity:0.995" fill="#0077f6" d="M 2552.5,951.5 C 2719.75,947.748 2804.75,1029.75 2807.5,1197.5C 2807.7,1237.64 2801.2,1276.64 2788,1314.5C 2761.31,1380.51 2713.14,1421.34 2643.5,1437C 2586.14,1448.96 2528.81,1445.96 2471.5,1428C 2409.46,1404.29 2369.29,1360.46 2351,1296.5C 2333.54,1231.24 2333.21,1165.91 2350,1100.5C 2372.68,1024.16 2422.85,976.989 2500.5,959C 2517.83,955.406 2535.16,952.906 2552.5,951.5 Z M 2561.5,1064.5 C 2613.2,1061.23 2646.37,1084.23 2661,1133.5C 2662.87,1141.75 2664.21,1150.08 2665,1158.5C 2665.67,1184.83 2665.67,1211.17 2665,1237.5C 2663.46,1263.56 2654.46,1286.56 2638,1306.5C 2620.57,1323.65 2599.57,1332.65 2575,1333.5C 2526.21,1332.79 2495.88,1308.12 2484,1259.5C 2482.63,1252.55 2481.63,1245.55 2481,1238.5C 2480.33,1211.5 2480.33,1184.5 2481,1157.5C 2482.3,1125.74 2495.13,1099.9 2519.5,1080C 2532.44,1071.74 2546.44,1066.58 2561.5,1064.5 Z"/></g>
<g><path style="opacity:0.995" fill="#0077f6" d="M 3069.5,951.5 C 3102.75,949.997 3135.75,953.164 3168.5,961C 3239.8,980.964 3286.96,1026.13 3310,1096.5C 3324.08,1148.11 3327.41,1200.45 3320,1253.5C 3314.3,1300.21 3296.63,1341.54 3267,1377.5C 3233.46,1412.19 3192.63,1433.02 3144.5,1440C 3097.85,1447.36 3050.85,1445.03 3003.5,1433C 2931.48,1410.83 2885.65,1363.33 2866,1290.5C 2851.1,1229.24 2850.76,1167.91 2865,1106.5C 2886.67,1027.16 2937.51,977.994 3017.5,959C 3034.83,955.406 3052.16,952.906 3069.5,951.5 Z M 3078.5,1064.5 C 3133.06,1061.58 3166.56,1086.58 3179,1139.5C 3180.56,1147.09 3181.56,1154.76 3182,1162.5C 3182.89,1189.85 3182.55,1217.19 3181,1244.5C 3178.09,1277.17 3163.26,1302.67 3136.5,1321C 3107.28,1335.99 3077.95,1337.32 3048.5,1325C 3025.15,1312.81 3009.98,1293.97 3003,1268.5C 3000.69,1259.96 2999.02,1251.29 2998,1242.5C 2997.33,1213.17 2997.33,1183.83 2998,1154.5C 3000.14,1125.39 3011.97,1101.22 3033.5,1082C 3047.05,1072.22 3062.05,1066.38 3078.5,1064.5 Z"/></g>
<g><path style="opacity:0.994" fill="#0077f6" d="M 1521.5,952.5 C 1562.8,949.572 1603.14,954.405 1642.5,967C 1695.72,986.555 1730.89,1023.39 1748,1077.5C 1756.88,1108.08 1761.38,1139.24 1761.5,1171C 1760.17,1196.33 1760.17,1221.67 1761.5,1247C 1760.23,1247.31 1759.07,1247.81 1758,1248.5C 1658.58,1247.92 1559.25,1247.59 1460,1247.5C 1461.46,1272.21 1469.46,1294.55 1484,1314.5C 1494.43,1325.13 1506.93,1332.3 1521.5,1336C 1531.36,1338.5 1541.36,1340.17 1551.5,1341C 1609.47,1344.7 1666.3,1335.2 1722,1312.5C 1731.47,1344.36 1740.63,1376.36 1749.5,1408.5C 1746.72,1411.4 1743.38,1413.57 1739.5,1415C 1698.78,1431.54 1656.45,1441.21 1612.5,1444C 1568.12,1448.03 1523.45,1446.03 1478.5,1438C 1390.14,1417.96 1338.3,1363.13 1323,1273.5C 1315.73,1222.16 1315.73,1170.83 1323,1119.5C 1339.97,1029.87 1393.13,976.034 1482.5,958C 1495.59,955.741 1508.59,953.908 1521.5,952.5 Z M 1538.5,1049.5 C 1593.72,1045.51 1625.22,1070.84 1633,1125.5C 1634.09,1135.14 1634.59,1144.8 1634.5,1154.5C 1576.5,1154.5 1518.5,1154.5 1460.5,1154.5C 1460.29,1128.32 1466.79,1103.99 1480,1081.5C 1495.01,1062.58 1514.51,1051.91 1538.5,1049.5 Z"/></g>
</svg>
